<svg width="25" height="27" viewBox="0 0 25 27" fill="none" xmlns="http://www.w3.org/2000/svg">
<path d="M10.0916 13.5057L19.4441 3.40463C19.7016 3.12717 19.8432 2.7562 19.8432 2.36063C19.8432 1.96485 19.7016 1.5941 19.4441 1.3162L18.6245 0.431561C18.3674 0.15322 18.0237 0 17.6575 0C17.2912 0 16.9479 0.15322 16.6906 0.431561L5.55504 12.4578C5.2967 12.7365 5.15524 13.109 5.15626 13.505C5.15524 13.9028 5.2965 14.2749 5.55504 14.5539L16.6802 26.5684C16.9376 26.8468 17.2808 27 17.6473 27C18.0136 27 18.3569 26.8468 18.6144 26.5684L19.4337 25.6838C19.9668 25.108 19.9668 24.1707 19.4337 23.5951L10.0916 13.5057Z" fill="#2E2E2E"/>
</svg>
