<svg width="43" height="44" viewBox="0 0 43 44" fill="none" xmlns="http://www.w3.org/2000/svg">
<path d="M26.4277 33.6417C26.9652 31.8084 28.0402 30.1584 29.4736 28.875C32.1611 26.5833 33.8632 23.1 33.8632 19.25C33.8632 12.1 28.0403 6.23335 20.8736 6.60005C14.5131 6.87505 9.31728 12.375 9.13814 18.8833C9.04853 22.9167 10.7506 26.4917 13.5277 28.875C15.0506 30.1583 16.1256 31.8083 16.6631 33.6417H26.4277Z" fill="#FFD15C"/>
<path d="M20.3352 33.825H21.1415L17.5581 20.1667C17.6477 20.1667 17.7373 20.1667 17.8269 20.1667C18.2748 20.1667 18.7227 19.9834 19.081 19.6167C19.2601 19.4334 19.4394 19.3417 19.7081 19.3417C19.9769 19.3417 20.156 19.4334 20.3352 19.6167C20.9623 20.35 22.0373 20.35 22.6644 19.6167C22.8435 19.4334 23.0227 19.3417 23.2915 19.3417C23.4706 19.3417 23.7394 19.4334 23.9186 19.6167C24.2769 19.9834 24.6352 20.1667 25.1727 20.1667C25.2623 20.1667 25.3519 20.1667 25.4415 20.1667L21.9477 33.825H22.754L26.4269 19.525C26.4269 19.3417 26.4269 19.1583 26.2477 19.0667C26.0686 18.975 25.8894 19.0667 25.7998 19.1584C25.6207 19.3417 25.4415 19.4334 25.2623 19.4334C24.9936 19.4334 24.8144 19.3417 24.5457 19.1584C24.1873 18.7917 23.8291 18.6084 23.3811 18.6084C22.9331 18.6084 22.5748 18.7917 22.2165 19.1584C21.8581 19.5251 21.3206 19.5251 20.9623 19.1584C20.6936 18.7917 20.2457 18.6084 19.7977 18.6084C19.3498 18.6084 18.9019 18.7917 18.6331 19.1584C18.454 19.3417 18.1852 19.4334 17.9165 19.4334C17.7373 19.4334 17.4686 19.3417 17.379 19.1584C17.2894 19.0667 17.1102 18.9751 16.9311 19.0667C16.752 19.1584 16.6623 19.3417 16.752 19.525L20.3352 33.825Z" fill="white"/>
<path d="M18.7227 42.075C19.1706 43.175 20.2456 44 21.4998 44C22.7539 44 23.8289 43.175 24.2769 42.075H18.7227Z" fill="#344A5E"/>
<path d="M24.8142 42.1666H18.2746C17.3787 42.1666 16.6621 41.4333 16.6621 40.5166V33.5499H26.4267V40.5166C26.4267 41.4332 25.71 42.1666 24.8142 42.1666Z" fill="#344A5E"/>
<path d="M26.3371 37.0333H16.6621C16.1246 37.0333 15.6768 36.575 15.6768 36.025C15.6768 35.475 16.1246 35.0167 16.6621 35.0167H26.3371C26.8746 35.0167 27.3225 35.475 27.3225 36.025C27.3225 36.575 26.8746 37.0333 26.3371 37.0333Z" fill="#415A6B"/>
<path d="M26.3371 40.2417H16.6621C16.1246 40.2417 15.6768 39.7834 15.6768 39.2334C15.6768 38.6834 16.1246 38.2251 16.6621 38.2251H26.3371C26.8746 38.2251 27.3225 38.6834 27.3225 39.2334C27.3225 39.7833 26.8746 40.2417 26.3371 40.2417Z" fill="#415A6B"/>
<path d="M21.4994 0C21.0515 0 20.6035 0.366695 20.6035 0.916695V4.03339C20.6035 4.4917 20.9619 4.95009 21.4994 4.95009C22.0369 4.95009 22.3952 4.58339 22.3952 4.03339V0.916695C22.3952 0.366695 21.9473 0 21.4994 0Z" fill="#FFD15C"/>
<path d="M9.49553 5.59167C9.13717 5.22498 8.59967 5.22498 8.2414 5.59167C7.88312 5.95837 7.88303 6.50837 8.2414 6.87498L10.3914 9.07498C10.7498 9.44167 11.2873 9.44167 11.6455 9.07498C12.0038 8.70828 12.0039 8.15828 11.6455 7.79167L9.49553 5.59167Z" fill="#FFD15C"/>
<path d="M6.71809 18.2417H3.67223C3.22434 18.2417 2.77637 18.6084 2.77637 19.1584C2.77637 19.6167 3.13473 20.0751 3.67223 20.0751H6.71809C7.16598 20.0751 7.61395 19.7084 7.61395 19.1584C7.61395 18.7 7.16598 18.2417 6.71809 18.2417Z" fill="#FFD15C"/>
<path d="M10.3905 29.2417L8.24045 31.4417C7.88209 31.8084 7.88209 32.3584 8.24045 32.725C8.59881 33.0916 9.13631 33.0917 9.49459 32.725L11.6446 30.525C12.003 30.1583 12.003 29.6083 11.6446 29.2417C11.2862 28.8751 10.7488 28.875 10.3905 29.2417Z" fill="#FFD15C"/>
<path d="M32.608 29.2417C32.2496 28.875 31.7121 28.875 31.3537 29.2417C30.9954 29.6084 30.9954 30.1584 31.3537 30.525L33.5037 32.725C33.8621 33.0917 34.3996 33.0917 34.7579 32.725C35.1162 32.3583 35.1162 31.8083 34.7579 31.4417L32.608 29.2417Z" fill="#FFD15C"/>
<path d="M39.3265 18.2417H36.2806C35.8327 18.2417 35.3848 18.6084 35.3848 19.1584C35.3848 19.6167 35.7431 20.0751 36.2806 20.0751H39.3265C39.7744 20.0751 40.2224 19.7084 40.2224 19.1584C40.2223 18.7 39.864 18.2417 39.3265 18.2417Z" fill="#FFD15C"/>
<path d="M33.5037 5.59164L31.3537 7.79164C30.9954 8.15834 30.9954 8.70834 31.3537 9.07494C31.7121 9.44164 32.2496 9.44164 32.6079 9.07494L34.7579 6.87494C35.1162 6.50825 35.1162 5.95825 34.7579 5.59164C34.3995 5.22503 33.8621 5.22494 33.5037 5.59164Z" fill="#FFD15C"/>
</svg>
