<svg width="41" height="39" viewBox="0 0 41 39" fill="none" xmlns="http://www.w3.org/2000/svg">
<path d="M8.20397 39H5.77384C5.38322 39 5.05426 38.7222 5.00798 38.3532L4.55762 35.7456H9.4202L8.96984 38.3532C8.92356 38.7222 8.59459 39 8.20397 39Z" fill="#927266"/>
<path d="M35.9913 38.3532C35.945 38.7222 35.6161 39 35.2255 39H32.7953C32.4047 39 32.0757 38.7222 32.0295 38.3532L31.5791 35.7456H36.4417L35.9913 38.3532Z" fill="#927266"/>
<path d="M6.98926 39H8.20436C8.59499 39 8.92395 38.7222 8.97023 38.3532L9.42059 35.7456H6.98926V39Z" fill="#736357"/>
<path d="M34.0645 39H35.2254C35.616 39 35.9451 38.7222 35.9913 38.3532L36.4417 35.7456H34.0645V39Z" fill="#736357"/>
<path d="M38.0296 36.318H2.96918C2.10762 36.318 1.40918 35.6536 1.40918 34.8341V1.4839C1.40918 0.664371 2.10762 0 2.96918 0H38.0297C38.8913 0 39.5897 0.664371 39.5897 1.4839V34.8342C39.5896 35.6536 38.8912 36.318 38.0296 36.318Z" fill="#1E1E1E"/>
<path d="M38.0302 0H35.8114C35.8192 0.060252 35.8245 0.121189 35.8245 0.183498V33.5338C35.8245 34.3533 35.126 35.0177 34.2645 35.0177H1.42285C1.51806 35.7504 2.17358 36.3181 2.96964 36.3181H38.0302C38.8917 36.3181 39.5901 35.6537 39.5901 34.8342V1.4839C39.5902 0.664371 38.8917 0 38.0302 0Z" fill="#181818"/>
<path d="M5.1377 31.4775V4.84061C5.1377 4.13548 5.7386 3.56396 6.4798 3.56396H34.4827C35.224 3.56396 35.8248 4.13556 35.8248 4.84061V31.4775C35.8248 32.1826 35.2239 32.7541 34.4827 32.7541H6.4798C5.7386 32.7542 5.1377 32.1826 5.1377 31.4775Z" fill="#727272"/>
<path d="M34.4831 3.56384H32.0233C32.0323 3.62333 32.0384 3.68359 32.0384 3.74544V30.3824C32.0384 31.0875 31.4375 31.659 30.6963 31.659H5.15332C5.24621 32.2778 5.80412 32.754 6.48038 32.754H34.4832C35.2244 32.754 35.8253 32.1825 35.8253 31.4774V4.84056C35.8253 4.13544 35.2244 3.56384 34.4831 3.56384Z" fill="#444444"/>
<path d="M6.04876 11.7314H4.30586C4.05546 11.7314 3.85254 11.5383 3.85254 11.3002V8.86016C3.85254 8.62197 4.05554 8.42896 4.30586 8.42896H6.04868C6.29909 8.42896 6.50201 8.62205 6.50201 8.86016V11.3002C6.50209 11.5384 6.29917 11.7314 6.04876 11.7314Z" fill="#927266"/>
<path d="M6.04876 27.8891H4.30586C4.05546 27.8891 3.85254 27.696 3.85254 27.4579V25.0179C3.85254 24.7797 4.05554 24.5867 4.30586 24.5867H6.04868C6.29909 24.5867 6.50201 24.7798 6.50201 25.0179V27.4579C6.50209 27.6961 6.29917 27.8891 6.04876 27.8891Z" fill="#927266"/>
<path d="M32.5198 23.7049C32.0002 23.7049 31.5791 23.3043 31.5791 22.8101V13.5078C31.5791 13.0136 32.0002 12.613 32.5198 12.613C33.0393 12.613 33.4605 13.0136 33.4605 13.5078V22.8101C33.4605 23.3043 33.0393 23.7049 32.5198 23.7049Z" fill="#927266"/>
<path d="M20.5007 24.2204C24.0198 24.2204 26.8725 21.5068 26.8725 18.1594C26.8725 14.812 24.0198 12.0984 20.5007 12.0984C16.9817 12.0984 14.1289 14.812 14.1289 18.1594C14.1289 21.5068 16.9817 24.2204 20.5007 24.2204Z" fill="#FFB125"/>
<path d="M20.4994 26.4774C25.3289 26.4774 29.2439 22.7533 29.2439 18.1594C29.2439 13.5655 25.3289 9.84143 20.4994 9.84143C15.6699 9.84143 11.7549 13.5655 11.7549 18.1594C11.7549 22.7533 15.6699 26.4774 20.4994 26.4774Z" fill="#FF901D"/>
<path d="M20.5007 24.2204C24.0198 24.2204 26.8725 21.5068 26.8725 18.1594C26.8725 14.812 24.0198 12.0984 20.5007 12.0984C16.9817 12.0984 14.1289 14.812 14.1289 18.1594C14.1289 21.5068 16.9817 24.2204 20.5007 24.2204Z" fill="#F4D451"/>
<path d="M20.4994 12.0981C20.2953 12.0981 20.0938 12.1082 19.8945 12.1261V15.5426C19.8945 15.8604 20.1654 16.118 20.4994 16.118C20.8335 16.118 21.1044 15.8604 21.1044 15.5426V12.1261C20.9052 12.1082 20.7036 12.0981 20.4994 12.0981Z" fill="#FF901D"/>
<path d="M20.4994 20.2001C20.1654 20.2001 19.8945 20.4577 19.8945 20.7755V24.192C20.0938 24.2098 20.2953 24.22 20.4994 24.22C20.7036 24.22 20.9051 24.2099 21.1044 24.192V20.7755C21.1044 20.4576 20.8336 20.2001 20.4994 20.2001Z" fill="#FF901D"/>
<path d="M26.8715 18.159C26.8715 17.9649 26.861 17.7731 26.8422 17.5836H23.2504C22.9163 17.5836 22.6455 17.8412 22.6455 18.159C22.6455 18.4768 22.9163 18.7344 23.2504 18.7344H26.8422C26.861 18.5449 26.8715 18.3532 26.8715 18.159Z" fill="#FF901D"/>
<path d="M17.7491 17.5836H14.1573C14.1386 17.7731 14.1279 17.9649 14.1279 18.159C14.1279 18.3532 14.1385 18.5449 14.1573 18.7344H17.7491C18.0831 18.7344 18.354 18.4768 18.354 18.159C18.354 17.8412 18.0831 17.5836 17.7491 17.5836Z" fill="#FF901D"/>
<path d="M24.5572 13.4857L22.017 15.902C21.7808 16.1267 21.7808 16.491 22.017 16.7158C22.1351 16.8281 22.29 16.8843 22.4448 16.8843C22.5996 16.8843 22.7544 16.8281 22.8726 16.7158L25.4127 14.2995C25.1551 14.0033 24.8686 13.7307 24.5572 13.4857Z" fill="#FF901D"/>
<path d="M18.1271 19.6022L15.5869 22.0184C15.8444 22.3147 16.131 22.5873 16.4425 22.8323L18.9826 20.416C19.2189 20.1912 19.2189 19.827 18.9826 19.6022C18.7464 19.3776 18.3635 19.3776 18.1271 19.6022Z" fill="#FF901D"/>
<path d="M25.4127 22.0183L22.8726 19.6021C22.6363 19.3774 22.2533 19.3774 22.017 19.6021C21.7808 19.8269 21.7808 20.1911 22.017 20.4159L24.5572 22.8321C24.8687 22.5872 25.1552 22.3146 25.4127 22.0183Z" fill="#FF901D"/>
<path d="M15.5869 14.2995L18.1271 16.7158C18.2452 16.8281 18.4001 16.8843 18.5548 16.8843C18.7096 16.8843 18.8644 16.8281 18.9826 16.7158C19.2189 16.491 19.2189 16.1267 18.9826 15.902L16.4425 13.4857C16.131 13.7307 15.8444 14.0033 15.5869 14.2995Z" fill="#FF901D"/>
<path d="M20.5035 21.9418C22.6979 21.9418 24.4767 20.2497 24.4767 18.1624C24.4767 16.075 22.6979 14.3829 20.5035 14.3829C18.3092 14.3829 16.5303 16.075 16.5303 18.1624C16.5303 20.2497 18.3092 21.9418 20.5035 21.9418Z" fill="#FF901D"/>
</svg>
